<?xml version="1.0" encoding="UTF-8" standalone="no"?>
<svg width="58px" height="26px" viewBox="0 0 58 26" version="1.1" xmlns="http://www.w3.org/2000/svg" xmlns:xlink="http://www.w3.org/1999/xlink" xmlns:sketch="http://www.bohemiancoding.com/sketch/ns">
    <!-- Generator: Sketch 3.4.2 (15855) - http://www.bohemiancoding.com/sketch -->
    <title>Logo</title>
    <desc>Created with Sketch.</desc>
    <defs></defs>
    <g id="Navigation-UX" stroke="none" stroke-width="1" fill="none" fill-rule="evenodd" sketch:type="MSPage">
        <g id="Static" sketch:type="MSArtboardGroup" transform="translate(-42.000000, -14.000000)">
            <g id="Navigation-Copy" sketch:type="MSLayerGroup">
                <g id="Logo" transform="translate(42.000000, 14.000000)" sketch:type="MSShapeGroup">
                    <path d="M55.3703635,26 L55.3703635,10.2979873 C55.3703635,7.79293465 54.5974814,5.77224021 53.0517172,4.23590399 C51.6273944,2.90291816 49.9183679,2.23682554 47.9254419,2.23682554 C45.8906951,2.23682554 44.12135,2.92373355 42.6174067,4.29754958 C41.1520673,5.71139522 40.4193976,7.71127426 40.4193976,10.2979873 L40.4193976,26 L38.1626783,26 L38.1626783,10.2979873 C38.1626783,7.79293465 37.3897962,5.77224021 35.844032,4.23590399 C34.418905,2.90291816 32.6905766,2.23682554 30.656634,2.23682554 C28.6629038,2.23682554 26.9739835,2.90291816 25.5922858,4.23590399 C24.005505,5.69138041 23.2125167,7.71127426 23.2125167,10.2979873 L23.2125167,26 L20.8930661,26 L20.8930661,10.2547553 C20.8930661,7.05638993 21.8091043,4.56574793 23.638768,2.78282934 C25.4700401,0.961482336 27.7886864,0.0496079435 30.5955111,0.0496079435 C35.0703457,0.0496079435 37.9205998,1.91338633 39.1438606,5.63774074 C39.8813558,3.77556354 40.9453756,2.39934573 42.3375285,1.50748614 C43.8117146,0.535567343 45.6735482,0.0496079435 47.9254419,0.0496079435 C50.7499601,0.0496079435 53.103189,0.940666941 54.9867373,2.72198435 C56.8686771,4.58576273 57.8112554,7.09641953 57.8112554,10.2547553 L57.8112554,26 L55.3703635,26 L55.3703635,26 Z" id="Fill-1" fill="#7F7F7F"></path>
                    <path d="M20.7963151,26 L20.7963151,12.1161319 C20.7963151,9.24761048 19.9003831,6.88346204 18.1109318,5.02368661 C16.3608887,3.16631296 14.1845942,2.23682554 11.5820485,2.23682554 C8.93687759,2.23682554 6.74047695,3.14549756 4.99204231,4.96444279 C3.24280343,6.82261704 2.36778186,9.20597969 2.36778186,12.1161319 L2.36778186,26 L0.0491355613,26 L0.0491355613,11.7726779 C0.0491355613,8.29170353 1.14693376,5.47682173 3.3449429,3.33043433 C5.54053929,1.14241615 8.26613496,0.0496079435 11.5209257,0.0496079435 C14.7749121,0.0496079435 17.5214182,1.12400253 19.7588355,3.26878874 C22.0774818,5.49763713 23.2364028,8.33253372 23.2364028,11.7726779 L23.2364028,26 L20.7963151,26 L20.7963151,26 Z" id="Fill-2" fill="#FFFFFF"></path>
                </g>
            </g>
        </g>
    </g>
</svg>