<?xml version="1.0" standalone="no"?><!DOCTYPE svg PUBLIC "-//W3C//DTD SVG 1.1//EN" "http://www.w3.org/Graphics/SVG/1.1/DTD/svg11.dtd"><svg width="100%" height="100%" viewBox="0 0 120 52" version="1.1" xmlns="http://www.w3.org/2000/svg" xmlns:xlink="http://www.w3.org/1999/xlink" xml:space="preserve" style="fill-rule:evenodd;clip-rule:evenodd;stroke-linejoin:round;stroke-miterlimit:1.41421;"><g id="Artboard1"><path d="M65.783,0.026c0.385,0.003 0.769,0.017 1.154,0.044c0.768,0.053 1.533,0.154 2.289,0.3c4.226,0.816 8.163,3.027 11.088,6.181c1.158,1.249 2.157,2.646 2.955,4.152c0.45,0.848 0.836,1.73 1.153,2.636c0.298,0.851 0.536,1.722 0.711,2.606c0.164,0.825 0.273,1.661 0.33,2.5c0.029,0.43 0.043,0.862 0.046,1.294c0.01,6.518 0,13.037 0,19.556l0,12.026l-5.484,0c-0.001,-4.009 -0.001,-8.017 -0.001,-12.026c0,-6.529 0.033,-13.059 0,-19.588c-0.001,-0.084 -0.002,-0.168 -0.004,-0.251c-0.008,-0.312 -0.024,-0.624 -0.051,-0.935c-0.052,-0.583 -0.139,-1.164 -0.262,-1.737c-0.265,-1.223 -0.697,-2.407 -1.283,-3.512c-0.248,-0.467 -0.522,-0.92 -0.821,-1.355c-1.638,-2.386 -4.004,-4.251 -6.679,-5.344c-1.465,-0.598 -3.028,-0.967 -4.61,-1.047c-0.495,-0.025 -0.991,-0.021 -1.486,0.01c-0.759,0.047 -1.515,0.157 -2.258,0.325c-2.6,0.59 -5.034,1.895 -6.965,3.734c-0.67,0.638 -1.278,1.34 -1.812,2.096c-0.532,0.753 -0.989,1.56 -1.36,2.405c-0.459,1.047 -0.785,2.15 -0.973,3.277c-0.087,0.525 -0.145,1.054 -0.175,1.584c-0.015,0.267 -0.022,0.533 -0.024,0.8l0,0.053l0,31.511l-5.484,0c0,-10.55 -0.051,-21.101 0,-31.651c0.001,-0.091 0.002,-0.182 0.004,-0.273c0.009,-0.406 0.028,-0.812 0.06,-1.216c0.063,-0.79 0.172,-1.576 0.328,-2.353c0.35,-1.737 0.939,-3.424 1.749,-5c0.614,-1.192 1.352,-2.319 2.198,-3.359c1.227,-1.509 2.679,-2.833 4.287,-3.927c1.747,-1.189 3.68,-2.105 5.707,-2.704c1.2,-0.354 2.432,-0.597 3.677,-0.719c0.351,-0.035 0.703,-0.06 1.055,-0.075c0.197,-0.009 0.393,-0.014 0.589,-0.017c0.117,-0.001 0.235,-0.001 0.352,-0.001Z" style="fill:#fff;fill-rule:nonzero;"/><path d="M25.719,0.02c0.499,0.003 0.998,0.017 1.497,0.047c0.944,0.056 1.886,0.162 2.818,0.32c2.139,0.364 4.23,1.001 6.204,1.902c1.964,0.895 3.808,2.048 5.478,3.416c2.005,1.641 3.756,3.589 5.188,5.747c1.845,2.783 3.162,5.917 3.837,9.188c0.225,1.089 0.379,2.192 0.458,3.301c0.038,0.531 0.057,1.063 0.062,1.595c0.026,5.605 0,11.211 0,16.817l0,8.968l-5.484,0c0,-2.989 0,-5.979 0,-8.968c0,-5.594 0.026,-11.189 0,-16.783c-0.001,-0.098 -0.002,-0.197 -0.004,-0.295c-0.009,-0.354 -0.026,-0.708 -0.053,-1.061c-0.055,-0.71 -0.149,-1.416 -0.281,-2.115c-0.58,-3.09 -1.889,-6.036 -3.767,-8.555c-1.114,-1.495 -2.431,-2.839 -3.909,-3.976c-1.291,-0.993 -2.705,-1.825 -4.202,-2.467c-1.321,-0.567 -2.705,-0.985 -4.118,-1.249c-1.72,-0.321 -3.482,-0.416 -5.228,-0.303c-1.057,0.069 -2.109,0.217 -3.143,0.448c-1.108,0.248 -2.195,0.591 -3.243,1.028c-1.089,0.454 -2.135,1.008 -3.123,1.653c-1.021,0.666 -1.978,1.429 -2.858,2.272c-1.961,1.879 -3.534,4.153 -4.622,6.64c-0.789,1.805 -1.324,3.722 -1.568,5.677c-0.069,0.548 -0.114,1.1 -0.136,1.653c-0.011,0.256 -0.015,0.513 -0.016,0.77l0,25.631l-5.484,0c0,-8.595 -0.039,-17.19 0.001,-25.785c0.004,-0.632 0.032,-1.264 0.084,-1.894c0.105,-1.282 0.31,-2.556 0.607,-3.808c0.713,-2.999 1.962,-5.869 3.664,-8.439c1.501,-2.266 3.355,-4.297 5.487,-5.983c1.593,-1.26 3.338,-2.324 5.188,-3.16c1.932,-0.873 3.976,-1.493 6.065,-1.852c0.907,-0.157 1.823,-0.264 2.741,-0.323c0.501,-0.033 1.001,-0.05 1.503,-0.056c0.119,-0.001 0.238,-0.001 0.357,-0.001Z" style="fill:#fff;fill-rule:nonzero;"/><path d="M100.03,0.026c0.347,0.003 0.693,0.014 1.039,0.036c0.768,0.049 1.534,0.145 2.291,0.286c4.19,0.784 8.104,2.94 11.037,6.028c1.229,1.293 2.284,2.751 3.12,4.327c0.45,0.848 0.835,1.73 1.153,2.636c0.298,0.851 0.535,1.722 0.711,2.606c0.159,0.803 0.267,1.616 0.325,2.433c0.032,0.453 0.048,0.907 0.05,1.361c0.01,6.518 0,13.037 0,19.556l0,12.026l-5.484,0c0,-4.009 0,-8.017 0,-12.026c0,-6.53 0.032,-13.059 0,-19.588c-0.001,-0.084 -0.002,-0.168 -0.004,-0.251c-0.008,-0.296 -0.023,-0.591 -0.048,-0.886c-0.05,-0.6 -0.139,-1.197 -0.266,-1.786c-0.264,-1.223 -0.697,-2.407 -1.283,-3.512c-0.247,-0.467 -0.522,-0.92 -0.82,-1.355c-1.622,-2.363 -3.958,-4.214 -6.601,-5.312c-1.488,-0.617 -3.078,-0.998 -4.689,-1.079c-0.494,-0.025 -0.991,-0.021 -1.485,0.01c-0.76,0.047 -1.516,0.157 -2.259,0.325c-2.6,0.59 -5.034,1.895 -6.964,3.734c-0.67,0.638 -1.279,1.34 -1.812,2.096c-0.533,0.753 -0.989,1.56 -1.36,2.405c-0.46,1.047 -0.785,2.15 -0.973,3.277c-0.088,0.525 -0.146,1.054 -0.176,1.584c-0.015,0.267 -0.022,0.533 -0.023,0.8l0,0.053l-0.001,31.511l-5.484,0c0,-10.55 -0.051,-21.101 0.001,-31.651c0.001,-0.091 0.002,-0.182 0.003,-0.273c0.01,-0.428 0.031,-0.856 0.066,-1.283c0.065,-0.789 0.177,-1.574 0.336,-2.35c0.359,-1.755 0.963,-3.458 1.793,-5.046c0.62,-1.187 1.365,-2.308 2.217,-3.342c1.236,-1.501 2.694,-2.816 4.308,-3.9c1.722,-1.157 3.62,-2.05 5.61,-2.638c1.162,-0.343 2.355,-0.582 3.559,-0.708c0.39,-0.041 0.781,-0.07 1.173,-0.086c0.196,-0.009 0.392,-0.014 0.589,-0.017c0.117,-0.001 0.234,-0.001 0.351,-0.001Z" style="fill:#fff;fill-rule:nonzero;"/></g></svg>